IKResults
version=1
nRows=7
nColumns=67
inDegrees=yes

Units are S.I. units (second, meters, Newtons, ...)
Angles are in degrees.

endheader
time	pelvis_tilt	pelvis_list	pelvis_rotation	pelvis_tx	pelvis_ty	pelvis_tz	hip_flexion_r	hip_adduction_r	hip_rotation_r	knee_angle_r	knee_rot_r	knee_adduc_r	ankle_angle_r	ankle_rot_r	ankle_add_r	subtalar_angle_r	mtp_angle_r	mtp_rot_r	mtp_add_r	hip_flexion_l	hip_adduction_l	hip_rotation_l	knee_angle_l	knee_rot_l	knee_adduc_l	ankle_angle_l	ankle_rot_l	ankle_add_l	subtalar_angle_l	mtp_angle_l	mtp_rot_l	mtp_add_l	lumbar_extension	lumbar_bending	lumbar_rotation	neck_flexion	neck_lateral_bending	neck_rotation	arm_flex_r	arm_add_r	arm_rot_r	elbow_flex_r	elbow_rot_r	elbow_add_r	pro_sup_r	wrist_flex_r	wrist_adduc_r	wrist_rot_r	wrist_dev_r	hand_finger_flex_r	hand_finger_adduc_r	hand_finger_rot_r	arm_flex_l	arm_add_l	arm_rot_l	elbow_flex_l	elbow_rot_l	elbow_add_l	pro_sup_l	wrist_flex_l	wrist_adduc_l	wrist_rot_l	wrist_dev_l	hand_finger_flex_l	hand_finger_adduc_l	hand_finger_rot_l
      1.65000000	     13.54074486	     10.15126553	     -0.42538122	     -0.81476043	      0.75947955	      0.78600464	      9.15935434	    -11.76856413	      3.71531652	    -58.13221602	     -5.00000000	      5.00000000	      5.19170537	     -5.00000000	      5.00000000	     -5.86521870	     21.11354613	     -2.00000000	      1.99963950	     -7.50668230	     17.85986342	      6.25485998	    -16.94229995	      5.00000000	      3.15233969	      6.74087378	     -0.69336842	     -2.28583975	     -1.80568949	     22.44142931	      1.79289154	      2.00000000	    -26.39936094	    -13.67258937	     -0.20172276	      0.00000000	      0.00000000	      0.00000000	      0.00000000	      0.00000000	      0.00000000	      0.00000000	      0.00000000	      0.00000000	     -0.00042092	      0.00000000	      0.00000000	      0.00000000	      0.00000000	      0.00000000	      0.00000000	      0.00000000	      0.00000000	      0.00000000	      0.00000000	      0.00000000	      0.00000000	      0.00000000	      0.00000000	      0.00000000	      0.00000000	      0.00000000	      0.00000000	      0.00000000	      0.00000000	      0.00000000
      1.65500000	     13.84437818	      9.88697181	      0.09299211	     -0.80873319	      0.76047170	      0.78549191	      9.21055217	    -11.51534198	      3.10032953	    -56.83912780	     -5.00000000	      5.00000000	      5.55134483	     -5.00000000	      5.00000000	     -6.34202165	     21.10562904	     -2.00000000	      1.99933085	     -8.82993217	     17.48637891	      6.20159536	    -16.25173992	      5.00000000	      3.41993968	      6.71707558	     -1.12630721	     -1.99164629	     -1.43783094	     22.38179787	      1.76264357	      2.00000000	    -27.05783167	    -13.11004595	     -0.91781877	      0.00000000	      0.00000000	      0.00000000	      0.00000000	      0.00000000	      0.00000000	      0.00000000	      0.00000000	      0.00000000	     -0.00042092	      0.00000000	      0.00000000	      0.00000000	      0.00000000	      0.00000000	      0.00000000	      0.00000000	      0.00000000	      0.00000000	      0.00000000	      0.00000000	      0.00000000	      0.00000000	      0.00000000	      0.00000000	      0.00000000	      0.00000000	      0.00000000	      0.00000000	      0.00000000	      0.00000000
      1.66000000	     13.78738309	      9.87422042	      0.16138128	     -0.80288464	      0.76076597	      0.78545428	      9.93708802	    -11.38258745	      3.28025915	    -55.68720523	     -5.00000000	      5.00000000	      5.61808094	     -5.00000000	      5.00000000	     -6.37358597	     21.10216433	     -1.99954050	      1.99771810	     -9.57973035	     17.43020946	      6.35103570	    -15.75284934	      5.00000000	      3.46535329	      7.08393940	     -1.24772641	     -2.00870241	     -1.35280911	     22.37541241	      1.75691050	      2.00000000	    -27.17338026	    -13.08369047	     -1.15341447	      0.00000000	      0.00000000	      0.00000000	      0.00000000	      0.00000000	      0.00000000	      0.00000000	      0.00000000	      0.00000000	     -0.00042092	      0.00000000	      0.00000000	      0.00000000	      0.00000000	      0.00000000	      0.00000000	      0.00000000	      0.00000000	      0.00000000	      0.00000000	      0.00000000	      0.00000000	      0.00000000	      0.00000000	      0.00000000	      0.00000000	      0.00000000	      0.00000000	      0.00000000	      0.00000000	      0.00000000
      1.66500000	     14.66557807	      9.60404661	      0.44566377	     -0.79685635	      0.76204553	      0.78518111	      9.29775691	    -11.07181934	      2.82761253	    -54.15972692	     -5.00000000	      5.00000000	      5.82731666	     -5.00000000	      5.00000000	     -7.01556643	     21.06200795	     -1.99534366	      1.98418590	    -11.57694513	     17.00695345	      6.13762951	    -14.90752549	      5.00000000	      3.68130625	      7.49199535	     -1.75163572	     -1.39966366	     -0.76908521	     22.26004405	      1.69005596	      2.00000000	    -28.43292674	    -12.54931457	     -1.73454973	      0.00000000	      0.00000000	      0.00000000	      0.00000000	      0.00000000	      0.00000000	      0.00000000	      0.00000000	      0.00000000	     -0.00042092	      0.00000000	      0.00000000	      0.00000000	      0.00000000	      0.00000000	      0.00000000	      0.00000000	      0.00000000	      0.00000000	      0.00000000	      0.00000000	      0.00000000	      0.00000000	      0.00000000	      0.00000000	      0.00000000	      0.00000000	      0.00000000	      0.00000000	      0.00000000	      0.00000000
      1.67000000	     14.51010019	      9.58724375	      0.55889111	     -0.79110300	      0.76206818	      0.78504037	     10.07760777	    -10.95029916	      2.97820191	    -52.88932971	     -5.00000000	      5.00000000	      5.93048754	     -5.00000000	      5.00000000	     -7.00395166	     21.05913234	     -1.99209363	      1.98219610	    -12.17002536	     16.93917575	      6.22042706	    -14.46095974	      5.00000000	      3.72577953	      7.66174171	     -1.80429408	     -1.39506949	     -0.70854628	     22.25278260	      1.68519434	      2.00000000	    -28.48295796	    -12.51547226	     -1.94060272	      0.00000000	      0.00000000	      0.00000000	      0.00000000	      0.00000000	      0.00000000	      0.00000000	      0.00000000	      0.00000000	     -0.00042092	      0.00000000	      0.00000000	      0.00000000	      0.00000000	      0.00000000	      0.00000000	      0.00000000	      0.00000000	      0.00000000	      0.00000000	      0.00000000	      0.00000000	      0.00000000	      0.00000000	      0.00000000	      0.00000000	      0.00000000	      0.00000000	      0.00000000	      0.00000000	      0.00000000
      1.67500000	     14.37510601	      9.52947764	      0.68249320	     -0.78520420	      0.76201658	      0.78495140	     10.78073799	    -10.80521551	      3.02160505	    -51.55730224	     -5.00000000	      5.00000000	      6.09537746	     -5.00000000	      5.00000000	     -7.05032770	     21.05558244	     -1.99072259	      1.98033911	    -12.85483184	     16.81098582	      6.33805923	    -13.91830375	      5.00000000	      3.77602874	      7.85445767	     -1.92018403	     -1.38153180	     -0.59882348	     22.24353383	      1.67736737	      2.00000000	    -28.50671292	    -12.38318412	     -2.27563086	      0.00000000	      0.00000000	      0.00000000	      0.00000000	      0.00000000	      0.00000000	      0.00000000	      0.00000000	      0.00000000	     -0.00042092	      0.00000000	      0.00000000	      0.00000000	      0.00000000	      0.00000000	      0.00000000	      0.00000000	      0.00000000	      0.00000000	      0.00000000	      0.00000000	      0.00000000	      0.00000000	      0.00000000	      0.00000000	      0.00000000	      0.00000000	      0.00000000	      0.00000000	      0.00000000	      0.00000000
      1.68000000	     14.34496766	      9.42497966	      1.03063786	     -0.77930404	      0.76209221	      0.78465615	     11.23470246	    -10.62515097	      2.87244032	    -50.13004352	     -5.00000000	      5.00000000	      6.36046364	     -5.00000000	      5.00000000	     -7.25123143	     21.04568197	     -1.99324731	      1.97660069	    -13.72168674	     16.55089484	      6.42682934	    -13.29342329	      5.00000000	      3.83869125	      8.04048196	     -2.11469295	     -1.28081917	     -0.39949236	     22.22282013	      1.65961193	      2.00000000	    -28.73555057	    -12.05266173	     -2.78547326	      0.00000000	      0.00000000	      0.00000000	      0.00000000	      0.00000000	      0.00000000	      0.00000000	      0.00000000	      0.00000000	     -0.00042092	      0.00000000	      0.00000000	      0.00000000	      0.00000000	      0.00000000	      0.00000000	      0.00000000	      0.00000000	      0.00000000	      0.00000000	      0.00000000	      0.00000000	      0.00000000	      0.00000000	      0.00000000	      0.00000000	      0.00000000	      0.00000000	      0.00000000	      0.00000000	      0.00000000
